<svg xmlns="http://www.w3.org/2000/svg" xmlns:xlink="http://www.w3.org/1999/xlink" width="156.034" height="124.639" viewBox="0 0 156.034 124.639">
  <defs>
    <clipPath id="clip-path">
      <rect id="Rectangle_99" data-name="Rectangle 99" width="156.034" height="124.639" transform="translate(0 0)" fill="none"/>
    </clipPath>
  </defs>
  <g id="Groupe_322" data-name="Groupe 322" transform="translate(0 0)">
    <g id="Groupe_de_masques_321" data-name="Groupe de masques 321" clip-path="url(#clip-path)">
      <path id="Tracé_116" data-name="Tracé 116" d="M141.959,124.639H14.074A14.09,14.09,0,0,1,0,110.564V14.075A14.09,14.09,0,0,1,14.074,0H141.959a14.09,14.09,0,0,1,14.074,14.075v96.489a14.09,14.09,0,0,1-14.074,14.075M14.074,2A12.088,12.088,0,0,0,2,14.075v96.489a12.087,12.087,0,0,0,12.074,12.075H141.959a12.088,12.088,0,0,0,12.074-12.075V14.075A12.089,12.089,0,0,0,141.959,2Z" fill="#16bac1"/>
      <path id="Tracé_117" data-name="Tracé 117" d="M43.911,17.55a18.045,18.045,0,0,1,7.456,1.4c2.62,1.4,3.9,4.077,3.9,8.037,0,3.495-.991,6.116-2.97,7.688-1.282,1.049-2.563,1.515-6.057,2.038v.234A15.59,15.59,0,0,1,51.6,38.051c2.622,1.224,4.077,3.961,4.077,7.571,0,4.835-2.1,8.5-5.591,9.785a15.39,15.39,0,0,1-5.066.816H17.062V17.55Zm-7.1,15.958c2.038,0,2.562-.116,3.2-.641a3.411,3.411,0,0,0,.991-2.5c0-2.04-1.108-2.971-3.554-2.971H31.8v6.115Zm-.349,13.92c3.611,0,4.658-.757,4.658-3.2,0-1.922-.99-2.854-3.144-2.854H31.8v6.057Z" fill="#161615"/>
      <path id="Tracé_118" data-name="Tracé 118" d="M94.645,20.928c2.911,2.97,4.543,8.27,4.543,14.794,0,7.978-2.446,14.443-6.7,18.054-2.854,2.331-7.746,3.612-13.92,3.612-5.824,0-10.134-1.165-13.1-3.495-4.6-3.611-6.99-10.193-6.99-18.987,0-6.639,1.922-11.824,5.358-14.619,3.379-2.737,8.5-4.077,15.26-4.077,7.164,0,12.406,1.572,15.552,4.718M72.979,36.42c0,6.582,1.746,9.377,5.881,9.377,4.019,0,5.825-2.62,5.825-8.5,0-5.649-1.573-7.746-5.825-7.746-4.077,0-5.881,2.1-5.881,6.872" fill="#161615"/>
      <path id="Tracé_119" data-name="Tracé 119" d="M141.416,56.223h-17.24L121.148,48.3a16.562,16.562,0,0,1-.815-3.436h-.35a15.51,15.51,0,0,1-.757,3.436l-3.087,7.921H99.132L110.664,36.77l-11.357-19.4H116.43l3.378,7.805a9.33,9.33,0,0,1,.641,3.2h.407a8.9,8.9,0,0,1,.7-2.854l2.912-8.154H141.3l-11.183,19.4Z" fill="#161615"/>
      <path id="Tracé_120" data-name="Tracé 120" d="M43.124,72.057l-.343,4.462-6.636-.344H33.056L32.77,96.711l.286,11.555H27.107l.344-11.04-.286-21.051H24.076l-6.75.344-.4-.516.458-4.461h25.4Z" fill="#16bac1"/>
      <path id="Tracé_121" data-name="Tracé 121" d="M68.322,82.9q3.459,3.69,3.46,10.382,0,7.437-3.689,11.441t-10.5,4q-6.35,0-9.782-3.776t-3.432-10.7q0-7.208,3.69-11.126t10.5-3.918q6.292,0,9.754,3.689m-16.3,3.146Q50.1,88.359,50.1,93.564q0,5.779,1.888,8.238T58,104.262q4.174,0,6.12-2.318t1.945-7.579q0-5.718-1.888-8.179t-6.12-2.46q-4.119,0-6.035,2.316" fill="#16bac1"/>
      <path id="Tracé_122" data-name="Tracé 122" d="M105.131,73.6l-1.2,5.492-.63.057a24.67,24.67,0,0,0-5.09-2.374,16.015,16.015,0,0,0-4.806-.715q-5.721,0-8.523,3.461t-2.8,10.9q0,7.1,2.632,10.269t8.351,3.175a15.62,15.62,0,0,0,2.832-.258,35.034,35.034,0,0,0,3.518-.887L99.582,99l-.171-5.663,5.549-.4-.115,5.148.172,8.409a41.948,41.948,0,0,1-12.3,2.231q-8.409,0-12.585-4.662T75.958,90.705q0-9.5,4.776-14.53t13.643-5.033A23.951,23.951,0,0,1,105.131,73.6" fill="#16bac1"/>
      <path id="Tracé_123" data-name="Tracé 123" d="M134.505,82.9q3.459,3.69,3.46,10.382,0,7.437-3.689,11.441t-10.5,4q-6.35,0-9.782-3.776t-3.432-10.7q0-7.208,3.69-11.126t10.5-3.918q6.292,0,9.754,3.689m-16.3,3.146q-1.917,2.317-1.917,7.522,0,5.779,1.888,8.238t6.007,2.46q4.174,0,6.12-2.318t1.945-7.579q0-5.718-1.888-8.179t-6.12-2.46q-4.119,0-6.035,2.316" fill="#16bac1"/>
    </g>
  </g>
</svg>
