<svg xmlns="http://www.w3.org/2000/svg" width="18.692" height="18" viewBox="0 0 18.692 18">
  <path id="Tracé_74" data-name="Tracé 74" d="M18.329,8.962,15.594,6.227a.692.692,0,0,1,.9-1.047l.078.067,3.916,3.917a.692.692,0,0,1,.067.9l-.067.078L16.574,14.06a.692.692,0,0,1-1.047-.9l.067-.078,2.735-2.733H13.077a7.154,7.154,0,0,1-7.15-6.927l0-.227a.692.692,0,0,1,1.385,0,5.769,5.769,0,0,0,5.557,5.766l.212,0ZM8.462,12.654a2.308,2.308,0,1,1-2.308-2.308A2.308,2.308,0,0,1,8.462,12.654Zm1.846,4.962c0,1.437-1.187,2.885-4.154,2.885S2,19.058,2,17.615v-.1a1.636,1.636,0,0,1,1.637-1.636H8.671a1.635,1.635,0,0,1,1.637,1.636Z" transform="translate(-2 -2.5)"/>
</svg>
