<svg xmlns="http://www.w3.org/2000/svg" xmlns:xlink="http://www.w3.org/1999/xlink" width="37.182" height="33.454" viewBox="0 0 37.182 33.454">
  <defs>
    <clipPath id="clip-path">
      <rect id="Rectangle_742" data-name="Rectangle 742" width="37.182" height="33.454" transform="translate(0 0)" fill="none"/>
    </clipPath>
  </defs>
  <g id="Groupe_1083" data-name="Groupe 1083" transform="translate(0 0)">
    <g id="Groupe_1082" data-name="Groupe 1082" clip-path="url(#clip-path)">
      <path id="Tracé_277" data-name="Tracé 277" d="M31.434,18.793V32.454H27.29V15.206H10.768V32.454H6.313V13.719l10.981-7.13a3.326,3.326,0,0,1,3.614-.007l12.151,7.644a2.038,2.038,0,0,0,2.19-3.437L20.918,1.539a3.33,3.33,0,0,0-3.636,0L1,12.178" fill="none" stroke="#161615" stroke-linecap="round" stroke-linejoin="round" stroke-width="2"/>
      <rect id="Rectangle_738" data-name="Rectangle 738" width="9.013" height="1.178" transform="translate(14.358 18.697)" fill="#161615"/>
      <rect id="Rectangle_739" data-name="Rectangle 739" width="9.013" height="1.178" transform="translate(14.358 22.321)" fill="#161615"/>
      <rect id="Rectangle_740" data-name="Rectangle 740" width="9.013" height="1.178" transform="translate(14.358 25.946)" fill="#161615"/>
      <rect id="Rectangle_741" data-name="Rectangle 741" width="9.013" height="1.178" transform="translate(14.358 29.57)" fill="#161615"/>
    </g>
  </g>
</svg>
