<svg id="Groupe_352" data-name="Groupe 352" xmlns="http://www.w3.org/2000/svg" xmlns:xlink="http://www.w3.org/1999/xlink" width="43.757" height="43.757" viewBox="0 0 43.757 43.757">
  <defs>
    <clipPath id="clip-path">
      <rect id="Rectangle_183" data-name="Rectangle 183" width="43.757" height="43.757" transform="translate(0 0)" fill="none"/>
    </clipPath>
    <clipPath id="clip-path-2">
      <rect id="Rectangle_184" data-name="Rectangle 184" width="26.684" height="26.684" transform="translate(8.536 8.537)" fill="none"/>
    </clipPath>
    <clipPath id="clip-path-3">
      <rect id="Rectangle_185" data-name="Rectangle 185" width="15.004" height="15.004" transform="translate(14.377 28.191)" fill="none"/>
    </clipPath>
  </defs>
  <g id="Groupe_345" data-name="Groupe 345">
    <g id="Groupe_344" data-name="Groupe 344" clip-path="url(#clip-path)">
      <path id="Tracé_129" data-name="Tracé 129" d="M43.757,21.878A21.878,21.878,0,1,1,21.878,0,21.878,21.878,0,0,1,43.757,21.878" fill="#21a9b1"/>
    </g>
  </g>
  <g id="Groupe_347" data-name="Groupe 347">
    <g id="Groupe_346" data-name="Groupe 346" clip-path="url(#clip-path-2)">
      <path id="Tracé_130" data-name="Tracé 130" d="M21.879,8.537a13.334,13.334,0,0,0-.572,26.655c.13.008.259.028.39.029.026,0,.052-.005.078-.005s.069.005.1.005a13.342,13.342,0,0,0,0-26.684M30.42,30.314a1.974,1.974,0,0,0,.121-.484,1.994,1.994,0,0,0-1.775-2.191h0A56.989,56.989,0,0,0,15,27.627a2,2,0,0,0-1.668,2.683,12.007,12.007,0,1,1,17.091.008" fill="#fff" fill-rule="evenodd"/>
      <path id="Tracé_131" data-name="Tracé 131" d="M21.879,13.873a5.337,5.337,0,1,0,5.337,5.337,5.336,5.336,0,0,0-5.337-5.337" fill="#fff" fill-rule="evenodd"/>
    </g>
  </g>
  <g id="Groupe_349" data-name="Groupe 349">
    <g id="Groupe_348" data-name="Groupe 348" clip-path="url(#clip-path-3)">
      <path id="Tracé_132" data-name="Tracé 132" d="M29.381,35.693a7.5,7.5,0,1,1-7.5-7.5,7.5,7.5,0,0,1,7.5,7.5" fill="#21a9b1"/>
    </g>
  </g>
  <g id="Groupe_351" data-name="Groupe 351">
    <g id="Groupe_350" data-name="Groupe 350" clip-path="url(#clip-path)">
      <path id="Tracé_133" data-name="Tracé 133" d="M27.912,34.776l-1.358-.414a4.927,4.927,0,0,0-.393-.957l.678-1.263a.257.257,0,0,0-.067-.3l-.985-.985a.243.243,0,0,0-.3-.047l-1.249.679a4.833,4.833,0,0,0-.971-.414l-.414-1.358a.245.245,0,0,0-.245-.163H21.219a.246.246,0,0,0-.238.176l-.414,1.358a4.778,4.778,0,0,0-.977.407l-1.236-.678a.238.238,0,0,0-.292.047l-1,.978a.256.256,0,0,0-.041.3l.679,1.236a4.588,4.588,0,0,0-.428.97l-1.358.408a.244.244,0,0,0-.176.237v1.392a.237.237,0,0,0,.176.21l1.358.414a4.781,4.781,0,0,0,.407.958L17,39.263a.244.244,0,0,0,.04.292l.985.984a.257.257,0,0,0,.3.048l1.27-.679a4.844,4.844,0,0,0,.95.387l.407,1.358a.257.257,0,0,0,.238.176h1.391a.25.25,0,0,0,.238-.176l.414-1.392a4.732,4.732,0,0,0,.937-.387l1.283.679a.245.245,0,0,0,.292-.048l1.032-.923a.24.24,0,0,0,0-.271l-.679-1.277a4.662,4.662,0,0,0,.393-.943l1.358-.414a.245.245,0,0,0,.177-.238V35.014a.247.247,0,0,0-.109-.238m-5.994,3.177a2.268,2.268,0,1,1,2.26-2.274v.014a2.267,2.267,0,0,1-2.26,2.26" fill="#fff"/>
    </g>
  </g>
</svg>
