<svg xmlns="http://www.w3.org/2000/svg" width="19.939" height="19.94" viewBox="0 0 19.939 19.94">
  <path id="Tracé_355" data-name="Tracé 355" d="M18.26,9.64a8.645,8.645,0,1,0,0,17.289,8.54,8.54,0,0,0,4.1-1.013,2.456,2.456,0,0,0,.323.324l2.471,2.47a2.521,2.521,0,1,0,3.765-3.353,2.486,2.486,0,0,0-.209-.209l-2.471-2.47a2.464,2.464,0,0,0-.4-.324,8.53,8.53,0,0,0,1.087-4.1,8.654,8.654,0,0,0-8.643-8.642Zm0,2.47a6.145,6.145,0,0,1,6.175,6.117v.057a6.2,6.2,0,0,1-1.63,4.248l-.075.074a2.5,2.5,0,0,0-.324.324,6.219,6.219,0,1,1-4.334-10.8h.163Z" transform="translate(-9.615 -9.615)" fill="#16bac1"/>
</svg>
