<svg xmlns="http://www.w3.org/2000/svg" width="19.915" height="20" viewBox="0 0 19.915 20">
  <path id="Tracé_73" data-name="Tracé 73" d="M3,10a.949.949,0,0,1-.713-.3A.817.817,0,0,1,2.05,9a10.189,10.189,0,0,1,.863-3.163A9.973,9.973,0,0,1,4.725,3.125a.948.948,0,0,1,.7-.275.988.988,0,0,1,.725.3.918.918,0,0,1,.275.675,1.1,1.1,0,0,1-.275.725A8.491,8.491,0,0,0,4.737,6.613,7.425,7.425,0,0,0,4.05,9a1.171,1.171,0,0,1-.338.713A.964.964,0,0,1,3,10Zm18,0a.979.979,0,0,1-.7-.288A1.142,1.142,0,0,1,19.95,9a7.46,7.46,0,0,0-.687-2.388A8.436,8.436,0,0,0,17.85,4.55a1.1,1.1,0,0,1-.275-.725.88.88,0,0,1,.3-.675.974.974,0,0,1,.713-.3.93.93,0,0,1,.687.275,9.981,9.981,0,0,1,1.813,2.712A10.159,10.159,0,0,1,21.95,9a.821.821,0,0,1-.237.7A.947.947,0,0,1,21,10ZM5,19a1,1,0,1,1,0-2H6V10A5.858,5.858,0,0,1,7.25,6.312,5.762,5.762,0,0,1,10.5,4.2V3.5a1.5,1.5,0,1,1,3,0v.7a5.767,5.767,0,0,1,3.25,2.113A5.856,5.856,0,0,1,18,10v7h1a1,1,0,1,1,0,2Zm7,3a2.006,2.006,0,0,1-2-2h4a2.006,2.006,0,0,1-2,2Z" transform="translate(-2.042 -2)"/>
</svg>
