<svg xmlns="http://www.w3.org/2000/svg" xmlns:xlink="http://www.w3.org/1999/xlink" width="40.482" height="34.654" viewBox="0 0 40.482 34.654">
  <defs>
    <clipPath id="clip-path">
      <rect id="Rectangle_763" data-name="Rectangle 763" width="40.482" height="34.654" transform="translate(0 0)" fill="none"/>
    </clipPath>
  </defs>
  <g id="Groupe_1103" data-name="Groupe 1103" transform="translate(4 0)">
    <g id="Groupe_1102" data-name="Groupe 1102" transform="translate(-4)" clip-path="url(#clip-path)">
      <path id="Tracé_282" data-name="Tracé 282" d="M33.6,16.462V33.654H8.482V12.171L21.19,7.948l12.322,4.223,5.97,2.107V7.948L21.129,1,1,8.638v5.581l3.488-1.351" fill="none" stroke="#161615" stroke-linecap="round" stroke-linejoin="round" stroke-width="2"/>
      <path id="Tracé_283" data-name="Tracé 283" d="M21.342,16.66c-2.681,0-4.264,1.674-4.341,4.593l-.007.257H19.07l0-.246c.035-1.8.752-2.679,2.194-2.679a1.776,1.776,0,0,1,1.953,1.693c0,.6-.211.977-.979,1.727-1.58,1.505-2.105,2.371-2.105,4.53v.25h2.014l0-.253a2.749,2.749,0,0,1,.92-2.574,12.616,12.616,0,0,0,1.594-1.595,3.123,3.123,0,0,0,.724-2.085c0-2.13-1.663-3.618-4.044-3.618" fill="#161615"/>
      <path id="Tracé_284" data-name="Tracé 284" d="M21.129,27.332a1.129,1.129,0,1,0,1.129,1.129,1.131,1.131,0,0,0-1.129-1.129" fill="#161615"/>
    </g>
  </g>
</svg>
