<svg xmlns="http://www.w3.org/2000/svg" width="17.771" height="17.771" viewBox="0 0 17.771 17.771">
  <g id="Groupe_247" data-name="Groupe 247" transform="translate(-3 -3)">
    <path id="Tracé_75" data-name="Tracé 75" d="M18.588,4H5.183A1.183,1.183,0,0,0,4,5.183V18.588a1.183,1.183,0,0,0,1.183,1.183H18.588a1.183,1.183,0,0,0,1.183-1.183V5.183A1.183,1.183,0,0,0,18.588,4Z" fill="none" stroke="#000" stroke-linecap="round" stroke-linejoin="round" stroke-width="2"/>
    <path id="Tracé_76" data-name="Tracé 76" d="M10.789,11.577A.789.789,0,1,0,10,10.789.789.789,0,0,0,10.789,11.577Zm0,9.462A.789.789,0,1,0,10,20.251.789.789,0,0,0,10.789,21.04Zm9.462-9.462a.789.789,0,1,0-.789-.789A.789.789,0,0,0,20.251,11.577Zm0,9.462a.789.789,0,1,0-.789-.789A.789.789,0,0,0,20.251,21.04Z" transform="translate(-3.634 -3.634)"/>
    <path id="Tracé_77" data-name="Tracé 77" d="M18.548,22.1A3.548,3.548,0,1,0,15,18.548,3.548,3.548,0,0,0,18.548,22.1Z" transform="translate(-6.663 -6.663)" fill="none" stroke="#000" stroke-linecap="round" stroke-linejoin="round" stroke-width="2"/>
  </g>
</svg>
