<svg xmlns="http://www.w3.org/2000/svg" width="20.25" height="18" viewBox="0 0 20.25 18">
  <g id="Groupe_245" data-name="Groupe 245" transform="translate(-6 26) rotate(-90)">
    <path id="Tracé_69" data-name="Tracé 69" d="M10.25,21.75a1.125,1.125,0,1,0-1.125-1.125A1.125,1.125,0,0,0,10.25,21.75Zm0,1.125A2.25,2.25,0,1,0,8,20.625,2.25,2.25,0,0,0,10.25,22.875ZM17,15a.545.545,0,0,0-.562.519V25.688a.563.563,0,0,0,1.125,0V15.519A.545.545,0,0,0,17,15Zm.563-5.062a.563.563,0,0,1-1.125,0V6.563a.563.563,0,0,1,1.125,0ZM23.75,26.25a.563.563,0,0,1-.562-.562V21.706a.564.564,0,0,1,1.125,0v3.981A.563.563,0,0,1,23.75,26.25Zm-.562-10.125a.563.563,0,0,0,1.125,0V6.563a.563.563,0,0,0-1.125,0Z" fill-rule="evenodd"/>
    <path id="Tracé_70" data-name="Tracé 70" d="M11.563,26.25A.563.563,0,0,1,11,25.688V24.519a.564.564,0,0,1,1.125,0v1.169A.563.563,0,0,1,11.563,26.25ZM11,18.375a.563.563,0,0,0,1.125,0V6.563a.563.563,0,0,0-1.125,0Zm7.313-5.625a1.125,1.125,0,1,0-1.125-1.125A1.125,1.125,0,0,0,18.313,12.75Zm0,1.125a2.25,2.25,0,1,0-2.25-2.25A2.25,2.25,0,0,0,18.313,13.875Zm6.75,5.063a1.125,1.125,0,1,0-1.125-1.125A1.125,1.125,0,0,0,25.063,18.938Zm0,1.125a2.25,2.25,0,1,0-2.25-2.25A2.25,2.25,0,0,0,25.063,20.063Z" transform="translate(-1.313)" fill-rule="evenodd"/>
  </g>
</svg>
