<svg xmlns="http://www.w3.org/2000/svg" xmlns:xlink="http://www.w3.org/1999/xlink" width="20" height="19.28" viewBox="0 0 20 19.28">
  <defs>
    <clipPath id="clip-path">
      <rect id="Rectangle_831" data-name="Rectangle 831" width="20" height="19.28" fill="#16bac1"/>
    </clipPath>
  </defs>
  <g id="Groupe_1213" data-name="Groupe 1213" clip-path="url(#clip-path)">
    <path id="Tracé_321" data-name="Tracé 321" d="M19.929,7.257A1.43,1.43,0,0,0,18.7,6.275l-5.3-.457L11.317.876a1.424,1.424,0,0,0-2.628,0L6.616,5.818l-5.307.46A1.428,1.428,0,0,0,.5,8.783L4.523,12.3,3.316,17.527a1.429,1.429,0,0,0,2.128,1.548L10,16.308l4.563,2.767a1.429,1.429,0,0,0,2.128-1.548L15.481,12.3l4.026-3.514a1.429,1.429,0,0,0,.423-1.525M18.16,7.8l-3.833,3.346a1.358,1.358,0,0,0-.431,1.335l1.151,4.985-4.34-2.635a1.352,1.352,0,0,0-1.406,0L4.965,17.461,6.109,12.48a1.36,1.36,0,0,0-.431-1.335L1.843,7.8a.015.015,0,0,1,0-.008l5.052-.436A1.36,1.36,0,0,0,8.03,6.528L10,1.829l1.972,4.7a1.36,1.36,0,0,0,1.135.829l5.052.436v0Z" transform="translate(0 0)" fill="#16bac1"/>
  </g>
</svg>
